<?xml version="1.0" encoding="UTF-8"?>
<svg id="uuid-bb0b19f9-59de-430e-81d6-4ad764eb849f" data-name="Layer 2" xmlns="http://www.w3.org/2000/svg" viewBox="0 0 192.99 76.31">
  <defs>
    <style>
      .uuid-41553bb2-e554-4468-a880-7af4af5c8428 {
        fill: #fff;
      }

      .uuid-4fe6d246-0842-4b7f-993f-4732f9e2c928 {
        fill: #f5b8d3;
      }
    </style>
  </defs>
  <g id="uuid-b2786f5a-4154-43aa-b3c2-e61399365415" data-name="元素">
    <g>
      <g>
        <path class="uuid-4fe6d246-0842-4b7f-993f-4732f9e2c928" d="M5.15,71.69c-2.21-1.74-3.54-3.63-3.05-6.57.2-1.22,1.17-2.72,1.92-3.67s1.35-2.08,2.25-3.01c1.81-1.85,3.5-3.96,5.59-5.45.98-.7,1.32-1.1,1.98-2.01s1.6-1.23,2.33-2.02c.69-.75,1.2-1.43,2.15-2.05.72-.47,1.35-.87,1.98-1.47,1.61-1.5,3.1-3.02,4.8-4.36,1.5-1.18,2.84-2.49,4.27-3.75.84-.74,1.84-1.3,2.7-2.03.23-.19,1.74-1.16,1.82-1.47.25-.99-1.55-3.11-2.07-4.05-.81-1.49-1.88-2.82-2.68-4.31-.88-1.64-.44-3-.86-4.69-.3-1.22-.34-1.02,0-2.24.3-1.11.15-1.64,1.12-2.44,1.33-1.08,2.86-1.28,4.44-.63.97.4,1.34.99,2.1,1.67.68.6,1.84.96,2.13,1.89-.59-1.56-1.12-2.17-1.1-3.91.01-1.04-.45-2.84.59-3.46.6-.36,2.82-.21,3.46,0,1.52.52,2.27,1.99,3.09,3.22-.84-3.11-1.22-8.14,3.47-7.36,1.44.24,3.11,1.38,3.93,2.55,1.18,1.69,2.93,2.46,4.15,4.04l8.59-1.01c.4-.44,1.28-.72,1.82-1,.6-.32,1.16-.69,1.72-1.01,1.05-.6,2.41-1.11,3.52-1.53,2.62-.99,6.17-.45,9.1-.49,2.9-.04,6.03,1.89,8.33,3.53,1.62,1.15,2.88,2.89,3.94,4.55.61.96,1.04,1.71,1.87,2.53.78.77,1.78,1.52,2.33,2.46-.15-.02-.26-.09-.33-.22l.02.28,1.52.51c1.18,0,2.36,0,3.54,0,1.47,0,2.73-.45,4.15-.52,3.02-.15,6.08.01,9.1.01,1.24,0,2.47,0,3.71,0,1.62,0,3.02.7,4.61.53.91-.1,1.77-.61,2.7-.58.81.02,1.47.48,2.25.58,1.33.17,2.7.2,4.01.47.57.12.81.42,1.37.55.67.15,1.49-.09,2.17-.04s1.32.26,1.99.52c.92.36,1.55.36,2.49.55.5.1.86.35,1.45.44.68.11,1.27.44,1.93.55.59.1,1.2-.08,1.8.02.87.15,1.6.42,2.49.46,1.31.07,2.4.67,3.67,1.01,1.45.39,3.06,1.06,4.41,1.76,1.09.56,2.24,1.22,3.28,1.87,1.22.78,1.89,2.58,3.51,2.47,1.71-.11,3.34-1.79,4.7-2.6,1.48-.89,2.86-1.69,4.45-2.37,2.76-1.18,5.19-2.79,8.08-3.66,2.59-.78,6.44-2.97,7.45,1.02.71,2.83-.95,5.56-1.93,8.08-1.11,2.85-3.14,5.31-4.74,7.86-.79,1.27-1.28,2.71-2.13,4-.88,1.35-1.7,2.7-2.52,4.06-.7,1.15-1.72,1.46-.73,2.76,1.04,1.37,2.61,2.56,3.82,3.78,1.04,1.05,2.29,1.73,3.3,2.76.55.57.91,1.12,1.55,1.53.88.57,1.22,1.09,2.01,1.79.57.5,1.34.81,1.97,1.23.98.64,1.08,1.1,1.64,2.05.89,1.51,1.92,2.74,1.03,4.53-1.58,3.19-5.84,4.02-9.05,4.04-1.52,0-2.75-.53-4.23-.5-1.59.03-2.85-.52-4.43-.51-1.55.01-3.1-.01-4.66,0-1.34,0-2.6-.68-3.87-.5h.33s-1.01-.51-1.01-.51c-1.23,0-2.61-.19-3.8.04-1.24.24-2.24.47-3.57.46-2.42,0-4.83,0-7.25,0h-7.97c-1.11,0-2.57-.26-3.67-.03-1.28.27-2.18.54-3.54.53-4.46-.01-8.92-.05-13.38,0-1.42.02-2.65-.47-4.05-.52-1.42-.05-2.86.02-4.28.02s-2.79.02-4.19,0c-1.28-.01-2.28.41-3.52.53-1.43.14-2.98,0-4.42-.02-1.39-.01-2.57.43-3.94.53-1.98.14-4.03-.03-6.01-.03-6.29,0-12.59.06-18.88,0-1.56-.01-2.94.63-4.46.55-1.89-.11-3.62-.55-5.56-.54-2.89,0-5.76-.18-8.59.39-.78.16-2.16.3-2.97.14-.57-.12-1-.52-1.56-.58-.42-.05-1.09.4-1.43.46-.94.16-.78-.06-1.6-.3-1.96-.56-4.71-.13-6.74-.11-1.37.01-2.45-.58-3.75-.4s-2.39.41-3.81.4c-2.45,0-4.9-.04-7.35,0-1.3.02-2.36-.46-3.65-.51-.83-.03-1.67.01-2.5.01h-5.56l-6.57-1.52Z"/>
        <path d="M50.57,76.31c-.46,0-.91-.03-1.3-.11-.52-.11-.92-.31-1.22-.45,0,0-.01,0-.02,0,0,0-.02,0-.03.01-.29.13-.61.27-.99.34-.93.15-1.48.1-2.2-.24-.07-.03-.15-.07-.28-.11-1.08-.31-2.75-.21-4.23-.12-.68.04-1.34.08-1.94.09-.87,0-1.53-.14-2.15-.27-.55-.12-.98-.21-1.36-.16-.32.04-.63.09-.92.13-.95.14-1.94.27-3.16.29h-1.77c-1.85-.02-3.7-.03-5.54,0-.95,0-1.7-.15-2.39-.3-.5-.11-.93-.2-1.36-.22-.49-.02-.98,0-1.47,0-.32,0-.64.01-.95.01h-5.55c-.15,0-.3-.02-.45-.05l-6.57-1.51c-.29-.07-.55-.19-.79-.38-1.98-1.55-4.52-4.11-3.79-8.47.3-1.8,1.58-3.64,2.32-4.58.27-.34.51-.7.75-1.06.45-.66.96-1.41,1.64-2.11.47-.49.94-.99,1.41-1.5,1.35-1.46,2.76-2.98,4.45-4.19.74-.53.94-.75,1.53-1.56.54-.74,1.19-1.21,1.71-1.58.31-.22.57-.41.75-.61l.35-.39c.56-.62,1.18-1.33,2.18-1.98.68-.44,1.2-.78,1.71-1.25.4-.38.8-.75,1.19-1.13,1.18-1.12,2.39-2.28,3.74-3.34.96-.75,1.85-1.56,2.79-2.42.46-.42.93-.84,1.4-1.26.53-.46,1.07-.84,1.59-1.21.41-.29.8-.56,1.15-.85.08-.07.28-.21.54-.39.07-.05.19-.13.31-.22-.25-.43-.6-.94-.81-1.25-.3-.44-.57-.83-.76-1.18-.36-.66-.79-1.31-1.24-1.99-.49-.74-1-1.5-1.44-2.33-.75-1.39-.82-2.65-.87-3.66-.03-.55-.05-1.02-.17-1.5l-.09-.37c-.31-1.19-.27-1.53.07-2.79.08-.3.12-.49.15-.66.16-.81.36-1.83,1.66-2.89,1.89-1.54,4.18-1.88,6.47-.93.1.04.2.09.3.13-.05-1.23.1-2.9,1.64-3.82,1.41-.84,4.41-.42,5.13-.17.02,0,.03.01.05.02.18-1.05.57-2.04,1.29-2.84.79-.88,2.29-1.84,4.9-1.41,1.92.32,4.07,1.71,5.24,3.38.46.66,1.09,1.17,1.81,1.76.48.39,1,.81,1.5,1.32l6.98-.82c.42-.28.87-.48,1.25-.65.15-.07.3-.13.42-.2.31-.17.61-.35.91-.53.26-.16.51-.31.76-.46,1.19-.68,2.64-1.23,3.8-1.66,2.29-.86,5-.76,7.39-.67.82.03,1.64.07,2.39.05.04,0,.08,0,.11,0,3.51,0,7.04,2.22,9.41,3.9,1.94,1.38,3.35,3.36,4.46,5.1l.21.34c.47.74.81,1.28,1.38,1.84.19.19.39.37.6.56.58.53,1.24,1.13,1.76,1.86l.09.03h.85c.79,0,1.58,0,2.37,0,.62-.01,1.25-.11,1.92-.23.66-.12,1.35-.24,2.12-.28,2.05-.1,4.13-.06,6.14-.03,1.02.02,2.05.04,3.06.04h1.29c.8,0,1.6,0,2.4,0,.98.02,1.78.17,2.52.32.71.15,1.33.27,1.88.22.2-.02.48-.11.78-.2.59-.18,1.35-.41,2.19-.39.75.02,1.36.24,1.85.41.23.08.45.16.59.18.45.06.91.1,1.36.14.91.08,1.85.16,2.81.36.57.12.97.33,1.23.46.06.03.11.07.18.09.09,0,.4-.02.61-.04.38-.04.8-.08,1.27-.05,1.01.07,1.83.36,2.57.66.44.17.77.22,1.27.3.28.04.56.09.88.15.39.08.7.2.94.29.2.08.32.12.43.14.51.08.95.24,1.3.36.25.09.46.16.63.19.07.01.28,0,.43-.01.38-.03.84-.06,1.38.03.36.06.71.14,1.05.22.45.1.83.19,1.21.21,1.15.06,2.11.4,2.96.71.36.13.73.26,1.12.37,1.48.4,3.19,1.08,4.81,1.92,1.21.63,2.4,1.31,3.43,1.96.66.42,1.15.96,1.57,1.44.22.25.6.67.76.73.6-.05,1.59-.78,2.38-1.36.45-.33.92-.68,1.39-.96,1.48-.89,2.95-1.75,4.69-2.49.99-.42,1.92-.9,2.92-1.41,1.67-.85,3.4-1.74,5.37-2.33.37-.11.77-.26,1.19-.41,1.93-.7,4.34-1.56,6.41-.46,1.17.62,1.97,1.74,2.37,3.32.74,2.94-.45,5.68-1.41,7.88-.21.48-.42.95-.6,1.42-.87,2.23-2.19,4.16-3.47,6.03-.49.72-.98,1.44-1.44,2.16-.32.51-.6,1.08-.89,1.7-.37.76-.74,1.55-1.26,2.33-.78,1.19-1.49,2.36-2.24,3.6l-.25.41c-.2.33-.41.6-.59.82.55.64,1.26,1.29,1.96,1.92.5.45.99.9,1.44,1.35.42.42.91.79,1.43,1.19.62.47,1.27.96,1.88,1.59.19.2.37.39.53.59.29.33.47.53.67.66.75.49,1.22.96,1.63,1.37.18.18.38.38.62.6.19.17.51.35.86.54.31.17.61.34.89.52,1.2.79,1.61,1.53,2.01,2.25.08.14.16.28.25.45.1.17.21.34.31.5.88,1.42,2.07,3.36.8,5.93-1.61,3.25-5.56,5.13-10.83,5.15-.96,0-1.77-.15-2.49-.29-.63-.12-1.14-.23-1.71-.21-1.01.02-1.88-.14-2.65-.29-.65-.12-1.22-.21-1.8-.22-.83,0-1.65,0-2.48,0-.73,0-1.46,0-2.18,0h-.04c-.83,0-1.56-.17-2.21-.33-.37-.09-.73-.17-1.02-.2-.08.01-.17.02-.26.02h-.33c-.54-.02-1-.19-1.36-.52-.19,0-.39-.01-.58-.02-.78-.04-1.58-.07-2.17.04l-.32.06c-1.13.22-2.2.43-3.59.43h-.05c-1.61,0-3.22,0-4.82,0h-10.39c-.41,0-.87-.03-1.34-.06-.68-.05-1.46-.1-1.92,0l-.64.14c-1.02.23-2.01.46-3.31.43h-2.92c-3.42-.02-6.96-.04-10.44,0-.95,0-1.81-.15-2.57-.3-.56-.11-1.08-.21-1.58-.22-.85-.03-1.7-.02-2.61,0-.53,0-1.07.02-1.6.02h-1.45c-.92,0-1.84.01-2.76,0-.5,0-1.02.1-1.61.23-.5.11-1.07.23-1.71.29-1.11.11-2.23.06-3.31.02-.45-.02-.89-.03-1.32-.04-.62.01-1.16.11-1.83.23-.58.11-1.23.24-1.95.29-1.39.1-2.77.06-4.11.02-2.75-.08-5.44-.04-8.16-.03-4.19.01-8.52.02-12.79-.02-.51,0-1.11.11-1.72.24-.83.17-1.77.37-2.83.3-.89-.05-1.73-.17-2.54-.28-.99-.14-1.92-.26-2.88-.26-.08,0-.16,0-.24,0-.53,0-1.06,0-1.59-.01-2.24-.02-4.35-.05-6.39.36-.56.11-1.53.25-2.46.25ZM48.04,71.66c.1,0,.2,0,.3.02.64.07,1.12.31,1.48.49.09.04.18.1.27.13.37.08,1.4,0,2.15-.14,2.45-.5,4.88-.47,7.23-.44.58,0,1.17,0,1.75.01,1.24.01,2.37.15,3.46.3.76.1,1.49.2,2.22.24.53.03,1.12-.09,1.8-.23.76-.15,1.61-.32,2.57-.32,4.24.04,8.56.03,12.74.02,2.75,0,5.49-.05,8.28.03,1.3.04,2.52.07,3.7-.01.48-.03.96-.13,1.47-.23.77-.15,1.64-.31,2.63-.31.47,0,.95.02,1.43.04.99.04,1.92.07,2.78,0,.4-.04.81-.13,1.24-.22.72-.15,1.55-.32,2.49-.32.9.01,1.8,0,2.71,0h1.46c.51,0,1.02-.01,1.53-.02.92-.02,1.87-.03,2.83,0,.8.03,1.54.17,2.19.29.65.12,1.26.23,1.77.23,3.5-.04,7.06-.02,10.5,0h2.92s.02.01.02.01c.88,0,1.52-.14,2.41-.34l.68-.15c1-.21,2.07-.14,3.02-.07.37.03.74.05,1.07.05h10.38c1.61,0,3.23,0,4.84,0h.03c1,0,1.8-.16,2.81-.36l.33-.07c1.06-.21,2.15-.16,3.12-.11.69.03,1.38-.05,1.96.24l.55.28c.65.04,1.24.18,1.78.3.48.11.93.22,1.29.22h.01c.75,0,1.49,0,2.23,0,.81,0,1.62,0,2.42,0,.96.01,1.82.15,2.56.29.67.12,1.24.23,1.85.22.96-.02,1.79.14,2.53.28.62.12,1.15.24,1.73.22,1.37,0,5.93-.24,7.26-2.93.24-.49.22-.7-.62-2.06-.11-.19-.23-.37-.34-.57-.12-.2-.22-.38-.31-.55-.3-.54-.33-.6-.71-.85-.2-.13-.41-.24-.62-.36-.5-.27-1.06-.58-1.58-1.04-.32-.28-.57-.53-.81-.77-.35-.35-.58-.58-.96-.83-.68-.44-1.12-.94-1.5-1.38-.12-.14-.25-.29-.39-.44-.41-.42-.9-.79-1.43-1.19-.61-.46-1.24-.94-1.85-1.56-.4-.4-.84-.8-1.29-1.2-.94-.86-1.92-1.74-2.71-2.78-1.7-2.23-.31-3.87.21-4.48.16-.19.29-.35.4-.52l.25-.41c.74-1.21,1.5-2.47,2.31-3.71.37-.57.68-1.2,1-1.88.33-.68.67-1.39,1.11-2.09.48-.77,1-1.53,1.52-2.29,1.21-1.76,2.34-3.43,3.05-5.23.2-.51.42-1.03.65-1.56.83-1.9,1.61-3.69,1.2-5.3-.13-.52-.29-.72-.37-.76-.5-.27-2.24.36-3.18.69-.48.17-.95.34-1.38.47-1.62.49-3.12,1.26-4.71,2.06-1.01.51-2.05,1.05-3.16,1.52-1.51.65-2.85,1.43-4.21,2.25-.31.18-.68.46-1.07.75-1.21.9-2.72,2.01-4.52,2.13-2,.13-3.19-1.18-3.97-2.05-.27-.3-.54-.6-.74-.73-.93-.59-2.01-1.21-3.12-1.79-1.35-.7-2.81-1.29-4.01-1.61-.5-.13-.96-.3-1.43-.46-.68-.24-1.26-.45-1.83-.48-.74-.04-1.36-.19-1.91-.32-.26-.06-.52-.12-.8-.17-.07-.01-.29,0-.45.01-.37.02-.82.05-1.34-.03-.5-.08-.94-.23-1.3-.36-.25-.09-.47-.16-.64-.19-.52-.08-.92-.24-1.21-.35-.1-.04-.2-.08-.31-.11-.26-.05-.49-.09-.71-.12-.59-.09-1.27-.2-2.11-.53-.59-.23-.99-.36-1.4-.39-.11-.01-.36.02-.57.04-.53.05-1.19.12-1.89-.04-.53-.12-.91-.32-1.16-.45-.06-.03-.11-.07-.18-.09-.73-.15-1.52-.22-2.35-.29-.5-.04-1-.09-1.5-.15-.57-.07-1.06-.24-1.44-.38-.25-.09-.5-.18-.62-.18-.21,0-.54.1-.88.21-.45.14-.96.3-1.55.36-1.18.13-2.21-.09-3.12-.28-.59-.12-1.15-.24-1.67-.24h-.02c-.81,0-1.62,0-2.43,0h-1.28c-1.04,0-2.09-.02-3.13-.04-1.94-.04-3.95-.07-5.87.02-.51.02-1.04.12-1.6.22-.78.14-1.64.29-2.65.3-.78,0-1.56,0-2.34,0h-1.18c-.21,0-.43-.03-.63-.1l-1.52-.51c-.73-.25-1.25-.89-1.35-1.65-.22-.23-.48-.46-.73-.69-.24-.22-.48-.44-.71-.66-.9-.88-1.41-1.7-1.95-2.55l-.2-.32c-.91-1.42-2.02-3.01-3.41-4-1.1-.78-4.45-3.16-7.09-3.16-.02,0-.04,0-.06,0-.85.01-1.74-.02-2.6-.05-2.11-.08-4.29-.16-5.82.42-1.03.39-2.32.87-3.24,1.4-.22.13-.44.26-.66.39-.36.22-.73.44-1.1.64-.2.11-.44.22-.69.33-.21.09-.55.24-.66.32-.33.36-.7.52-1.18.58l-8.58,1.01c-.7.08-1.38-.21-1.81-.76-.44-.56-1-1.02-1.65-1.55-.83-.68-1.78-1.45-2.56-2.57-.54-.78-1.76-1.58-2.62-1.72-.3-.05-1.03-.14-1.28.14-.45.5-.58,2.33.06,4.72.26.95-.21,1.94-1.1,2.34-.89.4-1.95.11-2.49-.71-.12-.18-.24-.37-.36-.56-.57-.89-1.07-1.66-1.71-1.88-.26-.07-.95-.12-1.49-.11,0,.24.03.51.04.71.03.36.05.7.05,1-.01.87.14,1.22.51,2.06.11.26.24.54.36.86.05.12.1.24.14.37.32,1.03-.23,2.13-1.25,2.49-1.02.35-2.14-.17-2.52-1.17-.11-.1-.37-.26-.55-.37-.33-.2-.7-.43-1.04-.74-.24-.22-.45-.42-.65-.62-.41-.41-.57-.56-.89-.69-.92-.38-1.67-.28-2.42.33-.14.12-.18.17-.18.17-.01.04-.05.24-.08.39-.05.25-.1.53-.19.84-.08.28-.13.45-.15.57.02.07.04.16.07.26l.1.41c.21.85.25,1.59.28,2.24.05.9.09,1.4.4,1.98.36.67.79,1.32,1.25,2.01.48.73.98,1.48,1.43,2.3.12.22.32.5.54.82.99,1.44,2.11,3.08,1.71,4.67-.23.91-.91,1.42-2.21,2.33-.13.09-.23.16-.29.21-.44.37-.92.71-1.39,1.04-.45.32-.88.62-1.24.94-.46.4-.9.81-1.35,1.21-.95.87-1.94,1.76-3.01,2.6-1.2.94-2.29,1.99-3.45,3.09-.4.38-.81.77-1.22,1.16-.76.71-1.48,1.18-2.25,1.68-.55.36-.89.75-1.37,1.29l-.39.44c-.46.51-.97.87-1.37,1.16-.36.26-.65.46-.82.69-.75,1.02-1.23,1.6-2.44,2.46-1.36.97-2.56,2.27-3.83,3.64-.49.53-.99,1.07-1.49,1.58-.43.44-.8.98-1.19,1.56-.29.43-.59.87-.92,1.29-.8,1.02-1.41,2.13-1.52,2.76-.29,1.73.25,2.95,1.98,4.39l5.89,1.36h5.33c.29,0,.58,0,.87-.01.57-.01,1.14-.02,1.71,0,.77.03,1.44.17,2.03.3.56.12,1.08.21,1.51.21,1.87-.03,3.74-.02,5.62,0h1.77c.89,0,1.67-.1,2.54-.24.32-.05.65-.1.99-.14,1.05-.14,1.97.05,2.7.2.48.1.86.19,1.3.18.54,0,1.12-.04,1.74-.08,1.8-.11,3.84-.23,5.58.27.28.08.5.17.66.23.02-.01.05-.02.07-.03.41-.18,1-.45,1.68-.45ZM46.34,72.15s0,0-.01,0c0,0,0,0,.01,0Z"/>
      </g>
      <g>
        <path class="uuid-4fe6d246-0842-4b7f-993f-4732f9e2c928" d="M38.99,54.52c1.3-1.52,2.49-2.7,4.01-4.02,1.21-1.05,2.16-2.3,3.37-3.32.67-.56,1.54-1.12,2.08-1.84,1.34-1.8,3.01-3.68,4.7-5.23.59-.54.94-1.22,1.48-1.77.69-.69,1.66-1.03,2.3-1.78.45-.53.5-1.22.85-1.77s.93-.92,1.31-1.49c.44-.67.72-1.24,1.22-1.86,1.35-1.64,2.28-3.64,2.8-5.71.58-2.27,0-4.74-1.37-6.59-.68-.91-1.75-1.7-2.55-2.51-.68-.68-2.94-1.96-2.52-3.03"/>
        <path d="M38.99,56.52c-.46,0-.92-.16-1.3-.48-.84-.72-.94-1.98-.22-2.82,1.32-1.54,2.58-2.81,4.22-4.23.51-.44.99-.95,1.5-1.48.58-.62,1.18-1.25,1.89-1.85.21-.17.43-.35.66-.53.43-.34.88-.68,1.1-.98,1.46-1.97,3.22-3.92,4.96-5.51.18-.16.35-.4.56-.67.24-.32.51-.68.86-1.03.47-.47.97-.79,1.41-1.08.33-.21.63-.41.79-.59.03-.04.1-.24.15-.38.12-.33.27-.75.55-1.18.3-.47.65-.81.93-1.08.16-.16.31-.31.38-.41.13-.2.24-.39.36-.58.26-.44.56-.93.99-1.45,1.1-1.33,1.93-3.04,2.41-4.93.41-1.61.01-3.49-1.04-4.9-.32-.43-.84-.9-1.35-1.35-.36-.32-.71-.63-1.02-.95-.13-.13-.33-.27-.55-.45-1.14-.88-3.26-2.52-2.41-4.71.4-1.03,1.55-1.54,2.59-1.14.79.31,1.28,1.06,1.28,1.86.26.26.74.63.99.83.35.27.69.53.95.8.26.26.55.52.84.78.63.56,1.33,1.19,1.89,1.94,1.78,2.39,2.42,5.48,1.71,8.28-.63,2.46-1.73,4.71-3.2,6.49-.24.3-.43.6-.66.98-.14.22-.28.46-.43.7-.3.46-.65.8-.92,1.07-.16.16-.31.31-.38.41-.03.05-.1.24-.15.37-.16.44-.37,1.03-.86,1.61-.54.63-1.17,1.04-1.67,1.36-.29.19-.57.37-.74.53-.15.15-.31.36-.49.6-.28.38-.61.81-1.07,1.23-1.55,1.42-3.13,3.17-4.44,4.94-.55.74-1.25,1.28-1.86,1.76-.18.14-.37.28-.53.42-.54.45-1.04.98-1.57,1.54-.55.58-1.12,1.18-1.78,1.76-1.5,1.3-2.6,2.4-3.8,3.81-.4.46-.96.7-1.52.7Z"/>
      </g>
      <g>
        <path class="uuid-4fe6d246-0842-4b7f-993f-4732f9e2c928" d="M80.4,39.88c.76,0,1.52-.02,2.27,0,.81.02,1.26.29,2.02.47,1.38.31,2.91-.24,4.29.02,1.01.19,1.64.55,2.73.54.84,0,1.69,0,2.53,0,1.83,0,3.41.02,5.14-.44,1.46-.39,3.9-1.08,4.67-2.57.67-1.3.75-2.97.36-4.35-.26-.92-.66-1.88-1.09-2.74-.53-1.08-1.04-1.41-1.72-2.24-.61-.75-.8-1.57-1.5-2.3-.73-.77-1.16-1.9-2.02-2.53"/>
        <path d="M91.66,42.89c-.95,0-1.66-.2-2.24-.37-.25-.07-.5-.15-.8-.2-.39-.07-.94-.02-1.52.03-.86.08-1.83.17-2.85-.07-.33-.08-.61-.16-.88-.25-.36-.11-.51-.16-.73-.17-.46-.01-.93,0-1.39,0h-.84c-1.1,0-2-.89-2-1.99s.9-2,2-2h.8c.5-.01,1.01-.01,1.51,0,.82.02,1.41.21,1.88.36.17.05.34.11.54.16.4.09.98.04,1.6-.02.79-.07,1.68-.15,2.61.02.44.08.81.18,1.18.29.48.14.77.22,1.17.21.64,0,1.28,0,1.92,0h.83c1.69,0,3.01,0,4.41-.37,2.5-.67,3.23-1.22,3.41-1.56.4-.79.49-1.92.21-2.89-.2-.71-.53-1.54-.96-2.4-.24-.49-.45-.71-.82-1.11-.21-.22-.42-.46-.66-.75-.4-.49-.66-.98-.88-1.37-.19-.34-.33-.61-.53-.82-.43-.45-.75-.93-1.03-1.36-.25-.38-.51-.78-.72-.93-.89-.65-1.09-1.9-.43-2.79.65-.89,1.9-1.09,2.79-.43.79.58,1.3,1.34,1.7,1.96.21.32.41.62.59.8.56.59.89,1.2,1.15,1.68.16.3.29.54.45.73.18.22.34.39.5.56.46.49.97,1.05,1.47,2.06.54,1.09.94,2.12,1.21,3.08.55,1.95.37,4.12-.5,5.81-1.19,2.32-4.27,3.15-5.93,3.59-1.92.51-3.63.51-5.45.51h-.84c-.62,0-1.25,0-1.87,0h-.08Z"/>
      </g>
      <g>
        <path class="uuid-4fe6d246-0842-4b7f-993f-4732f9e2c928" d="M111.2,42.91c1.12.02,1.95-.46,3.03-.52,1.09-.05,1.75-.23,2.78-.45,1.85-.4,3.91.24,5.78-.02.61-.08,1.15-.47,1.75-.51.65-.04.93.29,1.54.43,1.05.25,2.25.24,3.29.54,2.36.68,4.59,1.08,6.83,2.28,2.05,1.1,4.11,2.34,6.06,3.6.85.55,1.79,1.29,2.78,1.6,1.02.32,2.42-.23,3.42-.52,2.26-.65,4.27-3.28,2.67-5.45-1.52-2.06-4.61-3.69-7.1-4.03"/>
        <path d="M145.74,51.97c-.43,0-.87-.05-1.29-.19-1.06-.33-1.96-.95-2.75-1.49-.18-.12-.35-.24-.52-.35-1.97-1.29-3.96-2.47-5.92-3.52-1.5-.81-3.08-1.22-4.75-1.66-.56-.15-1.12-.29-1.69-.46-.4-.12-.91-.18-1.45-.24-.56-.07-1.15-.13-1.75-.28-.41-.1-.73-.24-.94-.33-.02-.01-.04-.02-.07-.03-.08.03-.17.07-.26.11-.34.13-.76.3-1.28.37-1.08.15-2.12.07-3.12-.02-.93-.08-1.81-.15-2.51,0l-.38.08c-.86.19-1.61.36-2.73.41-.29.01-.61.1-.98.19-.58.15-1.3.32-2.19.33-1.1-.02-1.98-.94-1.96-2.04.02-1.1.94-1.94,2.04-1.96.33.02.66-.08,1.09-.19.49-.13,1.09-.29,1.8-.32.78-.04,1.29-.15,2.06-.32l.39-.08c1.28-.28,2.56-.17,3.69-.08.82.07,1.6.13,2.25.04.06-.01.24-.08.37-.13.38-.15.9-.35,1.53-.39.89-.06,1.51.22,1.88.39.07.03.15.07.24.1.37.09.81.14,1.28.19.65.08,1.38.16,2.1.37.54.16,1.07.3,1.6.44,1.82.48,3.7.97,5.62,2.01,2.05,1.1,4.14,2.34,6.21,3.69.19.12.39.26.59.39.59.4,1.2.82,1.7.98.3.07,1.27-.23,1.73-.37.19-.06.37-.11.54-.16.77-.22,1.52-.88,1.74-1.53.11-.31.07-.55-.13-.82-1.13-1.53-3.66-2.95-5.76-3.23-1.09-.15-1.86-1.15-1.72-2.25.15-1.1,1.16-1.86,2.25-1.72,3.2.43,6.67,2.41,8.45,4.82.98,1.33,1.23,2.92.69,4.48-.65,1.9-2.38,3.5-4.43,4.08l-.46.14c-.79.24-1.79.55-2.82.55Z"/>
      </g>
      <g>
        <path class="uuid-4fe6d246-0842-4b7f-993f-4732f9e2c928" d="M154.13,44.42c2.44.46,3.4-2.49,3.01-4.27-.44-2.03-2.14-2.28-3.52-3.28-.57-.41-.87-1.15-1.39-1.58-.32-.26-1.02-.53-1.09-.86.31-.16.63-.2.97-.11"/>
        <path d="M154.64,46.47c-.29,0-.58-.03-.88-.08-1.09-.21-1.8-1.25-1.59-2.34.21-1.09,1.26-1.8,2.34-1.59.19.04.21,0,.27-.06.34-.35.54-1.23.41-1.82-.12-.53-.34-.7-1.35-1.24-.42-.23-.91-.49-1.39-.84-.56-.41-.93-.92-1.21-1.29-.1-.14-.23-.32-.29-.37-.02,0-.08-.05-.15-.09-.52-.31-1.39-.82-1.61-1.9-.18-.87.24-1.76,1.03-2.18.74-.39,1.57-.49,2.39-.28.92.23,1.54,1.08,1.51,1.99.14.17.26.33.36.48.1.14.25.35.32.41.26.19.59.37.94.56,1.13.61,2.84,1.54,3.36,3.91.34,1.56.03,3.94-1.45,5.46-.82.84-1.87,1.28-3.01,1.28Z"/>
      </g>
      <g>
        <path class="uuid-4fe6d246-0842-4b7f-993f-4732f9e2c928" d="M158.68,39.37c1.64-.02,2.59-.33,3.48-1.81.99-1.65.33-2.8-.45-4.25"/>
        <path d="M158.67,41.37c-1.09,0-1.98-.88-2-1.97-.02-1.1.87-2.01,1.97-2.03,1.2-.02,1.37-.14,1.79-.84.34-.57.34-.72-.44-2.18l-.05-.1c-.52-.97-.16-2.19.82-2.71.97-.52,2.19-.16,2.71.82l.05.1c.81,1.5,1.91,3.55.35,6.14-1.44,2.39-3.33,2.75-5.16,2.77h-.03Z"/>
      </g>
      <g>
        <path d="M93.03,9.07c-1.07,1.07-1.61,1.94-2.27,3.28-.92,1.86-2.3,4.16-1.79,6.34.07.32.22.67.37,1.03,1.21-.05,2.4-.3,3.5-.86,1.59-.82,3.03-1.29,4.23-2.69,1.01-1.17,1.89-2.51,2.04-4.04.16-1.67.59-3.03.11-4.58-.11-.35-.22-.66-.33-.95-.83.11-1.57.37-2.43.58-1.62.39-2.24.71-3.42,1.9Z"/>
        <path d="M89.33,21.72c-.79,0-1.51-.46-1.83-1.19-.18-.41-.38-.89-.5-1.39-.62-2.64.63-5.08,1.63-7.05l.32-.62c.72-1.44,1.38-2.53,2.65-3.8h0c1.41-1.42,2.35-1.94,4.37-2.43.26-.06.51-.13.75-.2.59-.16,1.2-.33,1.89-.42.9-.13,1.78.4,2.11,1.24.13.33.26.69.39,1.1.5,1.6.29,3.02.11,4.27-.05.35-.1.71-.14,1.09-.22,2.26-1.54,4.02-2.51,5.15-1.23,1.43-2.61,2.09-3.93,2.72-.29.14-.6.29-.9.44-1.27.65-2.69,1.01-4.32,1.08-.03,0-.06,0-.09,0ZM94.44,10.48c-.9.91-1.33,1.61-1.9,2.76l-.33.66c-.6,1.18-1.26,2.48-1.35,3.58.38-.1.73-.24,1.06-.41.34-.17.68-.34,1-.49,1.13-.54,1.94-.93,2.63-1.73.98-1.14,1.48-2.07,1.56-2.93.04-.44.1-.86.16-1.27.09-.65.17-1.18.16-1.67-.17.04-.34.09-.51.13-1.31.32-1.59.47-2.47,1.36h0Z"/>
      </g>
      <g>
        <path class="uuid-41553bb2-e554-4468-a880-7af4af5c8428" d="M93.53,2.52c-.6-.02-.97-.31-1.52-.42-.88-.18-1.17.31-2.02.4l-.51-.51c-2.25.04-4.75.62-6.57,2.01-1.98,1.52-3.05,3.69-3.65,6.07-.28,1.13-.46,2.05-.4,3.29.03.63.28.9.4,1.37.1.41,0,.93.21,1.31.84,1.48,3,2.62,4.55,3,1.69.42,3.52.76,5.3.68-.16-.36-.3-.71-.37-1.03-.51-2.17.87-4.48,1.79-6.34.66-1.34,1.21-2.21,2.27-3.28,1.18-1.19,1.8-1.5,3.42-1.9.86-.21,1.6-.47,2.43-.58-.39-.99-.87-1.69-1.81-2.59-1.13-1.08-1.98-1.43-3.53-1.49Z"/>
        <path d="M88.81,21.73c-2,0-3.93-.42-5.26-.75-2.06-.51-4.65-1.93-5.8-3.95-.37-.65-.4-1.3-.41-1.69,0-.06,0-.12,0-.18,0,0-.03-.06-.06-.11-.13-.31-.35-.83-.39-1.58-.08-1.56.17-2.72.46-3.87.79-3.18,2.22-5.53,4.37-7.18,2.65-2.03,5.99-2.39,7.74-2.42.38,0,.71.08,1.02.26.46-.16,1.1-.29,1.94-.12.38.08.7.2.93.28.09.04.23.09.27.09h0c2.05.08,3.36.64,4.83,2.04,1.12,1.07,1.79,2.03,2.29,3.3.23.57.18,1.22-.14,1.75-.31.53-.86.89-1.47.97-.42.05-.85.17-1.34.31-.28.08-.57.16-.87.23-1.31.32-1.59.47-2.47,1.36-.9.91-1.33,1.61-1.9,2.76l-.33.66c-.74,1.46-1.59,3.11-1.3,4.33.03.14.12.36.26.67.27.6.22,1.3-.13,1.86-.35.56-.95.92-1.61.95-.2,0-.41.01-.61.01ZM81.33,15.22c.55.74,1.94,1.58,3.18,1.88.64.16,1.46.35,2.33.47.04-2.04,1-3.92,1.8-5.49l.32-.62c.72-1.44,1.38-2.53,2.65-3.8,1.31-1.32,2.21-1.86,3.95-2.32-.68-.63-1.09-.78-2.11-.82-.68-.03-1.19-.22-1.53-.35-.08-.03-.15-.06-.23-.09-.03.01-.06.03-.09.04-.3.12-.74.31-1.36.38-.54.06-1.09-.1-1.51-.45-1.83.15-3.46.71-4.57,1.56-1.4,1.07-2.36,2.7-2.92,4.97-.27,1.09-.39,1.77-.34,2.7,0,.04,0,.05.08.23.1.24.19.48.26.75.09.36.1.69.11.93,0,.01,0,.03,0,.04Z"/>
      </g>
      <g>
        <path d="M72.81,10.31c-1.07,1.07-1.61,1.94-2.27,3.28-.92,1.86-2.3,4.16-1.79,6.34.07.32.22.67.37,1.03,1.21-.05,2.4-.3,3.5-.86,1.59-.82,3.03-1.29,4.23-2.69,1.01-1.17,1.89-2.51,2.04-4.04.16-1.67.59-3.03.11-4.58-.11-.35-.22-.66-.33-.95-.83.11-1.57.37-2.43.58-1.62.39-2.24.71-3.42,1.9Z"/>
        <path d="M69.11,22.96c-.79,0-1.51-.46-1.83-1.19-.17-.38-.38-.88-.49-1.39-.62-2.64.63-5.09,1.63-7.06l.31-.62c.71-1.44,1.38-2.52,2.65-3.8t0,0c1.41-1.42,2.35-1.94,4.37-2.43.26-.06.5-.13.75-.2.59-.16,1.2-.33,1.9-.42.9-.12,1.78.39,2.11,1.24.13.33.26.69.39,1.1.5,1.6.29,3.02.11,4.27-.05.35-.1.71-.14,1.09-.22,2.26-1.54,4.02-2.51,5.15-1.23,1.43-2.61,2.09-3.93,2.72-.29.14-.6.29-.9.44-1.27.65-2.69,1.01-4.32,1.08-.03,0-.06,0-.09,0ZM74.23,11.72h0c-.9.91-1.33,1.61-1.9,2.76l-.33.66c-.6,1.18-1.26,2.48-1.35,3.58.38-.1.73-.24,1.06-.41.34-.17.68-.34,1-.49,1.13-.54,1.94-.93,2.63-1.73.98-1.14,1.48-2.07,1.56-2.93.04-.44.1-.86.16-1.27.09-.65.17-1.18.16-1.67-.17.04-.33.09-.51.13-1.31.32-1.59.47-2.47,1.36Z"/>
      </g>
      <g>
        <path class="uuid-41553bb2-e554-4468-a880-7af4af5c8428" d="M73.31,3.76c-.6-.02-.97-.31-1.52-.42-.88-.18-1.17.31-2.02.4l-.51-.51c-2.25.04-4.75.62-6.57,2.01-1.98,1.52-3.05,3.69-3.65,6.07-.28,1.13-.46,2.05-.4,3.29.03.63.28.9.4,1.37.1.41,0,.93.21,1.31.84,1.48,3,2.62,4.55,3,1.69.42,3.52.76,5.3.68-.16-.36-.3-.71-.37-1.03-.51-2.17.87-4.48,1.79-6.34.66-1.34,1.21-2.21,2.27-3.28,1.18-1.19,1.8-1.5,3.42-1.9.86-.21,1.6-.47,2.43-.58-.39-.99-.87-1.69-1.81-2.59-1.13-1.08-1.98-1.43-3.53-1.49Z"/>
        <path d="M68.59,22.97c-2,0-3.93-.42-5.26-.75-2.06-.51-4.65-1.93-5.8-3.95-.37-.65-.4-1.3-.41-1.69,0-.06,0-.12,0-.18,0,0-.03-.05-.06-.11-.13-.31-.35-.83-.39-1.58-.08-1.56.17-2.72.46-3.87.79-3.19,2.22-5.53,4.37-7.18,2.65-2.03,5.99-2.39,7.75-2.42.35,0,.71.08,1.02.26.46-.16,1.1-.29,1.94-.12.38.08.7.2.93.28.09.04.23.09.27.09h0c2.05.08,3.36.64,4.83,2.04,1.12,1.07,1.79,2.03,2.29,3.3.23.57.18,1.22-.14,1.75-.31.53-.86.89-1.47.97-.42.05-.85.17-1.35.31-.28.08-.57.16-.86.23-1.31.32-1.59.47-2.48,1.36-.9.91-1.33,1.61-1.9,2.76l-.33.66c-.74,1.46-1.59,3.12-1.3,4.33.03.14.12.36.26.67.27.6.22,1.3-.13,1.86-.35.56-.95.92-1.61.95-.2,0-.41.01-.61.01ZM61.12,16.46c.55.74,1.94,1.58,3.18,1.88.64.16,1.46.35,2.33.47.04-2.04,1-3.92,1.8-5.49l.31-.62c.71-1.44,1.38-2.52,2.65-3.8,1.31-1.32,2.21-1.86,3.95-2.32-.68-.63-1.09-.78-2.11-.82-.68-.03-1.19-.22-1.53-.35-.08-.03-.15-.06-.23-.09-.03.01-.06.03-.09.04-.3.12-.74.31-1.36.38-.54.06-1.09-.1-1.51-.45-1.83.15-3.46.7-4.57,1.56-1.4,1.07-2.36,2.7-2.92,4.97-.27,1.09-.39,1.77-.34,2.7,0,.04,0,.05.08.23.1.24.19.48.26.75.09.36.1.69.11.93,0,.01,0,.03,0,.04Z"/>
      </g>
    </g>
  </g>
</svg>