<?xml version="1.0" encoding="UTF-8"?>
<svg id="uuid-714fdca2-66a0-404a-8e82-f075262f0287" xmlns="http://www.w3.org/2000/svg" version="1.1" viewBox="0 0 189.1 29.9">
  <!-- Generator: Adobe Illustrator 30.6.0, SVG Export Plug-In . SVG Version: 2.1.4 Build 109)  -->
  <defs>
    <style>
      .st0 {
        fill: #fff100;
      }
    </style>
  </defs>
  <g id="uuid-e679ec50-6f20-413a-b038-d7fac03d404f">
    <g>
      <path class="st0" d="M0,20.2c0-.8,1.4-1.4,3-1.4h6.5c1.6,0,3-1.1,3-2.5s-1.4-2.5-3-2.5h-4.8c-1.7,0-3-.6-3-1.4s1.3-1.4,3-1.4h4.8c1.6,0,3-1.4,3-3V3.1c0-1.6.9-3,2-3s2,1.4,2,3v5c0,1.6,1.4,3,3,3h4.9c1.6,0,3,.6,3,1.4s-1.4,1.4-3,1.4h-4.9c-1.6,0-3,1.1-3,2.5s1.4,2.5,3,2.5h6.5c1.6,0,3,.6,3,1.4s-1.4,1.4-3,1.4h-6.5c-1.6,0-3,1.4-3,3v2c0,1.6-.9,3-2,3s-2-1.4-2-3v-2c0-1.6-1.4-3-3-3H3c-1.6,0-3-.6-3-1.4h0ZM8.7,9.2c-.6.4-1.9-.2-2.8-1.4S3.1,3.3,3.9,2.7s2.4,0,3.3,1.3c.9,1.3,2.1,4.7,1.4,5.1ZM25.2,2.8c.9.5.9,2,0,3.2s-4.3,3.9-5,3.5-.5-1.7.4-2.8,3.8-4.4,4.7-3.9h0Z"/>
      <path class="st0" d="M60.8,15.4c0,.7-1.3,1.2-3,1.2h-15c-1.7,0-3,.4-3,.8s1.3.8,3,.8h14c1.7,0,3,1.4,2.9,3,0,0,0,2.9-.2,4.4s-.5,2.6-1.1,3.2c-.6.6-1.5,1-2.8,1.1h-1.2c-1.6-.1-3-.7-3.1-1.2s-1.5-.9-3.1-.9h-11.7c-1.7,0-3-1.3-3-2.8s.8-2.8,1.8-2.8,1.8.7,1.8,1.6,1,1.6,2.1,1.6,2.1-.9,2.1-2,.9-2,2-2,2,.9,2,2,.9,2,2.1,2,2.1-.7,2.1-1.6.8-1.6,1.8-1.6,1.8,1.1,1.8,2.4.4,2.4.9,2.4h.5c.5,0,.9-.3,1.1-.9.2-.5.3-1.3.3-2.2v-.7c0-1.4-1.3-2.6-2.9-2.6h-14.1c-1.7,0-3-1.4-3-3V5.8c0-1.7,1.3-3,3-3h1.5c1.7,0,3.1-.5,3.2-1.1s1.2-1.9,2.3-1.7,1.8.7,1.6,1.2c-.2.5.5,1.6,2.1,1.6h4.7c1.7,0,3,1.3,3,3v3.9c0,1.6-1.3,3-3,3h-11.4c-1.7,0-3,.3-3,.7s1.3.7,3,.7h15c1.7,0,3,.6,3,1.2h0ZM39.7,5.9c0,.4,1.3.8,3,.8h7.3c1.7,0,3-.3,3-.8s-1.3-.8-3-.8h-7.3c-1.7,0-3,.3-3,.8ZM53.1,9.6c0-.4-1.3-.8-3-.8h-7.3c-1.7,0-3,.3-3,.8s1.3.8,3,.8h7.3c1.7,0,3-.3,3-.8Z"/>
      <path class="st0" d="M73.8,4.9c0-1.7,1.3-3,3-3h12.6c1.7,0,3,1.3,3,3v.6c0,1.7-.8,3-1.8,3s-1.8-.9-1.8-1.9-.4-1.9-.8-1.9-.8,1-.8,2.3,0,2.5.1,2.8,1.7.4,2.9.4,2.1.6,2.1,1.3-1.3,1.3-3,1.3h0c-1.7,0-3.2,0-3.5,0s-.8.5-.8,1.3,1.3,1.5,3,1.5h1.7c1.7,0,3,.6,3,1.3s-1.3,1.3-3,1.3h-.3c-1.7,0-2.2,1-1.1,2.3l3.6,3.9c1.2,1.1,1.8,2.5,1.3,3s-2,.1-3.2-.9l-2.8-2.5c-1.2-1.2-2.1-.8-2.1.8v2.2c0,1.6-.9,3-1.9,3s-1.9-1.4-1.9-3v-2c0-1.6-.9-2-2.1-.9l-2.7,2.4c-1.3,1-2.7,1.5-3.2.9s0-1.9,1.3-3l3.7-3.9c1-1.3.5-2.3-1.1-2.3h0c-1.7,0-3-.5-3-1.1s-.7-.8-1.6-.5-1.6,1.9-1.6,3.6v3.6c0,1.6-.1,3.9-.3,4.9l-.6.5c-.6.5-1.6.7-2.9.7h-1c-.9-.1-1.9-.9-2-1.8s.4-1.5,1.2-1.4h.6c.5,0,.8-.1,1-.3l.2-.2c0-.2,0-1.8,0-3.4v-1.4c0-1.6-.4-2.9-1-2.7s-2.2-.2-2.4-1.2.2-1.9.9-2.1,2.5-1.8,2.5-3.5v-.8c0-1.6-.7-3-1.6-3s-1.5-.6-1.5-1.3.7-1.3,1.5-1.3,1.6-1.2,1.6-2.7.8-2.7,1.9-2.7,1.9,1.2,1.9,2.7.6,2.7,1.2,2.7,1.2.6,1.2,1.3-.6,1.3-1.2,1.3-1.2,1.4-1.2,3h0c0,1.7.7,2.9,1.6,2.7s1.6,0,1.7.6,1.4,1,3.1,1h1.1c1.7,0,3-.7,3-1.6s.8-1.6,1.7-1.6,1.5-.2,1.3-.6-.4-2.7-.4-4.2-1.3-2.7-3-2.7h-.4c-1.7,0-3,.8-3,1.9s-.8,1.9-1.8,1.9-1.8-1.3-1.8-3v-.4h0ZM74.8,13.2c-.5-.6.1-1.9,1.3-3,0,0,1.1-1,1.7-2.4s1.9-2.3,2.9-2.1,1.1,1.6.3,3l-3.1,3.6c-1.3,1-2.7,1.4-3.2.9h0Z"/>
      <path class="st0" d="M98.5,29.8c-1,0-1.8-1.4-1.8-3V4.5c0-1.7,1.3-3,3-3h3.8c1.7,0,3,.6,3,1.3s-.3,2.3-.6,3.4.4,1.3,1.8.3l5.1-4.8c1.1-1.2,2.8-2,3.8-1.7s1.7.8,1.4,1.1c-.2.3.6,1.5,1.8,2.6l3.8,3c1.4.9,2.2,2.1,1.8,2.7s-1.3.7-2.1.3-2.7-1.2-2.7-.8-1.3.9-3,.9h-4.2c-1.7,0-3-.3-3-.7s-.6-.4-1.3,0-2.9,1.1-3.3.6-1,0-1.3.9,0,3.1.6,4.6c0,0,1.7,4.2,1.3,6.6-.2.9-.6,1.5-1.1,1.8-.5.4-1.1.5-1.8.6h-.7c-.9,0-1.7-.8-1.9-1.5s0-1.2.5-1.1h.3c.3,0,.7,0,.9-.2l.3-.2c.1-.3.1-1.5,0-2.6s-1.4-7.3-1.1-8.9l.6-2.6c.4-1.6,0-2.9-.7-2.9s-1.4,1.3-1.4,3v19.5c0,1.6-.8,3-1.8,3h0ZM114.4,27.4c-.4.5-1.2.5-1.8,0s-2.8-1.1-3.5-.4-3.3,2.4-3.8,2-.2-1.8.9-3.1l2.4-3.5c.8-1.5,2.2-2.4,3.1-2s1.5,1,1.3,1.4-.3,1.8.3,2.4,1.7,2.6,1.3,3.1h0ZM111.8,11.6c1.7,0,3,1.4,3,3v2.1c0,1.6-1.3,3-3,3h-1.9c-1.7,0-3-1.4-3-3v-2.1c0-1.6,1.3-3,3-3h1.9ZM110.8,14.1c-.5,0-1,.7-1,1.5s.4,1.5,1,1.5,1-.7,1-1.5-.4-1.5-1-1.5ZM116.4,7.4c1.7,0,2.4-.5,1.6-1.1s-3.2-1.7-3.9-1.1-1.2,2.2.5,2.2h1.8ZM124.5,26.3c.7.9.9,2,.4,2.6s-1.5.4-2.2-.3-3.3-1.9-3.9-1.2-2.8,2.2-3.4,1.8-.3-1.8.7-3.1l1.9-3.3c.7-1.5,2-2.5,2.9-2.2s1.6.9,1.4,1.3,1.4,3.5,2.2,4.4h0ZM121.2,11.6c1.7,0,3,1.4,3,3v2.2c0,1.6-1.3,3-3,3h-2c-1.7,0-3-1.4-3-3v-2.2c0-1.6,1.3-3,3-3h2ZM120.2,14.1c-.6,0-1,.7-1,1.6s.4,1.6,1,1.6,1-.7,1-1.6-.4-1.6-1-1.6Z"/>
      <path class="st0" d="M150.9,2.1c1.6,0,3,1.3,3,3v21.6c0,1.6-.9,3-2,3s-2-.7-2-1.5-1.4-1.5-3-1.5h-9.1c-1.6,0-3,.7-3,1.5s-.9,1.5-2,1.5-2-1.4-2-3V5.1c0-1.7,1.4-3,3-3h17,0ZM134.9,9.9c0,1.6,1.4,3,3,3h9.1c1.6,0,3-1.4,3-3v-2c0-1.7-1.4-3-3-3h-9.1c-1.6,0-3,1.3-3,3v2ZM150,18.6c0-1.6-1.4-3-3-3h-9.1c-1.6,0-3,1.4-3,3v2.3c0,1.6,1.4,3,3,3h9.1c1.6,0,3-1.4,3-3,0,0,0-2.3,0-2.3Z"/>
      <path class="st0" d="M172.1,4.9c0,.7-1.4,1.3-3,1.3h-6.2c-1.6,0-3-.6-3-1.3s1.1-1.3,2.4-1.3,2.2-.5,1.9-1-.2-2.2.8-2.4,2,.2,2.2.9c.2.7,1.5,2.5,2.7,2.5s2.2.6,2.2,1.3h0ZM160.6,10c0-.7,1.4-1.2,3-1.2h4.8c1.6,0,3,.6,3,1.2s-1.4,1.2-3,1.2h-4.8c-1.6,0-3-.6-3-1.2ZM160.6,14.7c0-.7,1.4-1.2,3-1.2h4.8c1.6,0,3,.6,3,1.2s-1.4,1.2-3,1.2h-4.8c-1.6,0-3-.6-3-1.2ZM168.4,18.6c1.6,0,3,1.4,3,3v4.8c0,1.6-.8,3-1.8,3s-1.8-.5-1.8-1-.8-1-1.9-1-1.9.5-1.9,1.1-.8,1.1-1.8,1.1-1.8-1.4-1.8-3v-4.9c0-1.6,1.4-3,3-3h4.8,0ZM166,21c-1,0-1.9.9-1.9,1.9s.8,1.9,1.9,1.9,1.9-.9,1.9-1.9-.8-1.9-1.9-1.9ZM173.1,3.7c0-.7,1.4-1.3,3-1.3h8.2c1.6,0,3,1.3,3,3v6.7c0,1.6-1.4,3-3,3h-4.1c-1.6,0-3,1.4-3,3v4.2c0,1.6.1,3.5.3,4h.6c.7.2,1.7.2,2.9.2,1.2,0,2.1,0,2.9-.1.6-.1,1-.6,1.2-1.5.2-.9.2-2,.2-2,0-1.6,1-2.6,2-2s1.9,2.3,1.7,4c0,0-.1,1.5-.7,2.6s-1.5,1.8-3,2c-.8,0-2.2.1-4.3.1s-3.5,0-4.3-.1c-2.3-.2-2.4-.5-2.4-.5-.6-1.5-1.1-4.2-1.1-5.8v-7.8c0-1.6,1.4-3,3-3h4c1.6,0,3-1.4,3-3v-1.4c0-1.7-1.4-3-3-3h-4.2c-1.6,0-3-.6-3-1.3h0Z"/>
    </g>
  </g>
</svg>