<?xml version="1.0" encoding="UTF-8"?>
<svg id="Layer_2" data-name="Layer 2" xmlns="http://www.w3.org/2000/svg" viewBox="0 0 168.62 29.98">
  <defs>
    <style>
      .cls-1 {
        fill: #1eaee5;
      }
    </style>
  </defs>
  <g id="Layer_1-2" data-name="Layer 1">
    <g>
      <path class="cls-1" d="M.57,18.31c-.76-1.47-.76-3.87,0-5.33L5.4,3.59c.76-1.47,1.91-2.42,2.57-2.12s.67,1.79.02,3.3c0,0-.77,1.82-1.73,4.06-.96,2.27-1.73,4.06-1.73,4.06-.65,1.52-.65,4,0,5.51,0,0,.77,1.79,1.73,4.03.96,2.27,1.73,4.09,1.73,4.09.65,1.52.64,3-.02,3.3s-1.82-.66-2.57-2.12L.57,18.31ZM7.54,18.31c-.76-1.47-.76-3.87,0-5.33L12.38,3.59c.76-1.47,1.91-2.42,2.57-2.12s.67,1.79.02,3.3c0,0-.77,1.82-1.73,4.06-.96,2.27-1.73,4.06-1.73,4.06-.65,1.52-.65,4,0,5.51,0,0,.77,1.79,1.73,4.03.96,2.27,1.73,4.09,1.73,4.09.65,1.52.64,3-.02,3.3s-1.82-.66-2.57-2.12l-4.84-9.39Z"/>
      <path class="cls-1" d="M23.64,4.92c0-1.65,1.35-3,3-3h19.53c1.65,0,3,1.35,3,3v1.9c0,1.65-1.35,3-3,3h-15.69c-1.65,0-3,.99-3,2.21s-.16,3.55-.34,5.19l-2.53,10.3c-.62,1.53-1.65,2.4-2.28,1.93s-.77-2.14-.31-3.73l1.38-8.5c.13-1.64.24-4.34.24-5.99v-6.32ZM45.34,5.87c0-.7-1.35-1.26-3-1.26h-11.85c-1.65,0-3,.57-3,1.26s1.35,1.26,3,1.26h11.85c1.65,0,3-.57,3-1.26ZM38.78,22.46c-1.46,0-3.32,1.18-4.13,2.62l-2.83,3.27c-1.29,1.02-2.8,1.44-3.34.92s-.13-1.72.93-2.67,1.79-4.13.53-4.13-2.29-.6-2.29-1.34,1.18-1.34,2.62-1.34,2.67-.37,2.72-.83.1-2.01.1-2.3-.96-.54-2.13-.54-2.13-.58-2.13-1.28.99-1.28,2.19-1.28,1.93-.36,1.62-.8-.36-1.73.74-1.94,2.17.1,2.4.67,1.94,2.06,3.46,2.06,2.91-.48,3.1-1.06,1.53-1.93,2.62-1.74,1.74.71,1.44,1.17-.18,1.63,1.06,1.63,2.24.58,2.24,1.28-.98,1.28-2.18,1.28-2.18.83-2.18,1.84,1.25,1.84,2.77,1.84,2.77.6,2.77,1.34-1.25,1.34-2.77,1.34-2.77,1.35-2.77,3v1.42c0,1.65-.88,3-1.95,3s-1.95-1.35-1.95-3v-1.42c0-1.65-1.2-3-2.66-3ZM39.08,19.77c1.29,0,2.35-.83,2.35-1.84s-1.02-1.84-2.26-1.84-2.26.24-2.26.54-.01.94-.03,1.42.9,1.71,2.19,1.71Z"/>
      <path class="cls-1" d="M82.74,4.51c0,.72-1.35,1.31-3,1.31h-6.45c-1.65,0-3,.48-3,1.06s1.35,1.06,3,1.06h4.14c1.65,0,3,1.35,3,3v6.25c0,1.65-1.35,3-3,3h-1.2c-1.65,0-1.9.79-.57,1.75l5.44,3.41c1.46.77,2.36,1.93,2,2.58s-1.87.59-3.35-.13l-6.97-4.02c-1.37-.92-2.49-.32-2.49,1.33v1.87c0,1.65-.89,3-1.98,3s-1.98-1.35-1.98-3v-1.49c0-1.65-1.13-2.26-2.5-1.35l-6.81,3.8c-1.49.7-2.99.76-3.32.14s.58-1.77,2.04-2.54l5.75-3.56c1.33-.98,1.06-1.78-.59-1.78h-1.58c-1.65,0-3-1.35-3-3v-6.25c0-1.65,1.35-3,3-3h4.02c1.65,0,3-.48,3-1.06s-1.35-1.06-3-1.06h-6.45c-1.65,0-3-.59-3-1.31s1.35-1.31,3-1.31h6.45c1.65,0,3-.72,3-1.6s.89-1.6,1.98-1.6,1.98.72,1.98,1.6,1.35,1.6,3,1.6h6.45c1.65,0,3,.59,3,1.31ZM60.22,11.68c0,.62,1.35,1.12,3,1.12h.11c1.65,0,3-.5,3-1.12s-1.35-1.12-3-1.12h-.11c-1.65,0-3,.5-3,1.12ZM66.33,16.46c0-.61-1.35-1.1-3-1.1h-.11c-1.65,0-3,.5-3,1.1s1.35,1.1,3,1.1h.11c1.65,0,3-.5,3-1.1ZM70.3,11.68c0,.62,1.35,1.12,3,1.12h.24c1.65,0,3-.5,3-1.12s-1.35-1.12-3-1.12h-.24c-1.65,0-3,.5-3,1.12ZM76.54,16.46c0-.61-1.35-1.1-3-1.1h-.24c-1.65,0-3,.5-3,1.1s1.35,1.1,3,1.1h.24c1.65,0,3-.5,3-1.1Z"/>
      <path class="cls-1" d="M115.06,5.38c0,.74-1.35,1.34-3,1.34h-11.69c-1.65,0-3.28.48-3.62,1.06s.05,2.11,1.7,2.11h10.77c1.65,0,3,1.35,3,3v10.38c0,1.65-.16,3.98-.35,5.18l-.67.51c-.7.51-1.89.77-3.58.8h-1.54c-1.57-.12-3-.94-3.18-1.81s.77-1.47,2.13-1.33h1.12c.8,0,1.38-.13,1.66-.42l.29-.26c.09-.6.16-1.38.16-1.73s-1.35-.64-3-.64h-7.5c-1.65,0-3,1.35-3,3v.27c0,1.65-.89,3-1.98,3s-1.98-1.35-1.98-3v-7.95c0-1.65-.58-2.4-1.28-1.66s-3.1,2.14-3.65,1.58-.11-2.03.98-3.27l4.76-6.32c.89-1.39.28-2.52-1.37-2.52h-1.14c-1.65,0-3-.6-3-1.34s1.35-1.34,3-1.34h2.51c1.65,0,3.27-.63,3.61-1.41s1.97-2.55,3.01-2.18,1.69,1.1,1.46,1.63.47,1.95,2.12,1.95h10.29c1.65,0,3,.6,3,1.34ZM108.25,14.02c0-.79-1.35-1.44-3-1.44h-7.5c-1.65,0-3,.65-3,1.44s1.35,1.44,3,1.44h7.5c1.65,0,3-.65,3-1.44ZM108.25,19.52c0-.79-1.35-1.44-3-1.44h-7.5c-1.65,0-3,.65-3,1.44s1.35,1.44,3,1.44h7.5c1.65,0,3-.65,3-1.44Z"/>
      <path class="cls-1" d="M119.61,4.66c0-1.65,1.35-3,3-3h18.16c1.65,0,2.98,1.35,2.95,3,0,0-.18,11.5-.18,15.46-.03,3.97.22,5.95.77,5.98.42,0,.6-2.42.6-2.42.13-1.65.77-2.71,1.43-2.37s1.09,1.97.97,3.61c0,0-.15,1.91-.69,3.12s-1.38,1.82-2.43,1.82c-1.5,0-2.59-.86-3.23-2.59-.64-1.73-.96-4.64-.96-8.74V7.35c0-1.65-1.35-3-3-3h-10.61c-1.65,0-3,1.35-3,3v2.16c0,1.65-.14,4.34-.32,5.98l-2.88,11.91c-.63,1.52-1.65,2.45-2.25,2.05s-.7-2.01-.22-3.59l1.68-10.36c.12-1.65.22-4.34.22-5.99v-4.85ZM126.6,28.48c-1.63.26-3.04-.36-3.14-1.38s.8-1.91,2-1.98,4.29-1.11,4.29-2.11-1.15-1.82-2.56-1.82-2.56-1.35-2.56-3v-2.74c0-1.65,1.15-3,2.56-3s2.56-.59,2.56-1.31-.71-1.24-1.57-1.15-3.43-.28-3.68-.93.88-1.41,2.51-1.68l7.22-1.52c1.6-.4,3.33-.03,3.84.84s.12,1.74-.86,1.95-3.81,1.43-3.81,2.27,1.15,1.54,2.56,1.54,2.56,1.35,2.56,3v2.74c0,1.65-1.15,3-2.56,3s-2.56.75-2.56,1.66.53,1.61,1.17,1.55,1.02-.38.85-.7.14-1.37,1.09-1.62,2.1.61,2.56,1.9.77,4.69.06,4.85-1.42-.1-1.6-.58-1.99-1.45-3.61-1.12l-7.32,1.34ZM128.82,14.94c-.51,0-.93.84-.93,1.87s.42,1.87.93,1.87.93-.84.93-1.87-.42-1.87-.93-1.87ZM134.33,14.94c-.51,0-.93.84-.93,1.87s.42,1.87.93,1.87.93-.84.93-1.87-.42-1.87-.93-1.87Z"/>
      <path class="cls-1" d="M161.08,12.98c.76,1.47.76,3.87,0,5.33l-4.84,9.38c-.76,1.47-1.91,2.42-2.57,2.12s-.67-1.79-.02-3.3c0,0,.77-1.82,1.73-4.09.96-2.24,1.73-4.03,1.73-4.03.65-1.52.65-4,0-5.51,0,0-.77-1.79-1.73-4.06-.96-2.24-1.73-4.06-1.73-4.06-.65-1.52-.64-3,.02-3.3s1.82.66,2.57,2.12l4.84,9.39ZM168.06,12.98c.76,1.47.76,3.87,0,5.33l-4.84,9.38c-.76,1.47-1.91,2.42-2.57,2.12s-.67-1.79-.02-3.3c0,0,.78-1.82,1.73-4.09.96-2.24,1.73-4.03,1.73-4.03.65-1.52.65-4,0-5.51,0,0-.77-1.79-1.73-4.06-.96-2.24-1.73-4.06-1.73-4.06-.65-1.52-.64-3,.02-3.3s1.82.66,2.57,2.12l4.84,9.39Z"/>
    </g>
  </g>
</svg>